<svg width="219" height="31" viewBox="0 0 219 31" fill="none" xmlns="http://www.w3.org/2000/svg">
<path d="M44.634 18.216C43.638 18.216 42.672 18.084 41.736 17.82C40.812 17.544 40.068 17.19 39.504 16.758L40.494 14.562C41.034 14.958 41.676 15.276 42.42 15.516C43.164 15.756 43.908 15.876 44.652 15.876C45.48 15.876 46.092 15.756 46.488 15.516C46.884 15.264 47.082 14.934 47.082 14.526C47.082 14.226 46.962 13.98 46.722 13.788C46.494 13.584 46.194 13.422 45.822 13.302C45.462 13.182 44.97 13.05 44.346 12.906C43.386 12.678 42.6 12.45 41.988 12.222C41.376 11.994 40.848 11.628 40.404 11.124C39.972 10.62 39.756 9.948 39.756 9.108C39.756 8.376 39.954 7.716 40.35 7.128C40.746 6.528 41.34 6.054 42.132 5.706C42.936 5.358 43.914 5.184 45.066 5.184C45.87 5.184 46.656 5.28 47.424 5.472C48.192 5.664 48.864 5.94 49.44 6.3L48.54 8.514C47.376 7.854 46.212 7.524 45.048 7.524C44.232 7.524 43.626 7.656 43.23 7.92C42.846 8.184 42.654 8.532 42.654 8.964C42.654 9.396 42.876 9.72 43.32 9.936C43.776 10.14 44.466 10.344 45.39 10.548C46.35 10.776 47.136 11.004 47.748 11.232C48.36 11.46 48.882 11.82 49.314 12.312C49.758 12.804 49.98 13.47 49.98 14.31C49.98 15.03 49.776 15.69 49.368 16.29C48.972 16.878 48.372 17.346 47.568 17.694C46.764 18.042 45.786 18.216 44.634 18.216ZM58.0025 18.216C56.7185 18.216 55.5545 17.94 54.5105 17.388C53.4785 16.824 52.6625 16.05 52.0625 15.066C51.4745 14.07 51.1805 12.948 51.1805 11.7C51.1805 10.452 51.4745 9.336 52.0625 8.352C52.6625 7.356 53.4785 6.582 54.5105 6.03C55.5545 5.466 56.7245 5.184 58.0205 5.184C59.1125 5.184 60.0965 5.376 60.9725 5.76C61.8605 6.144 62.6045 6.696 63.2045 7.416L61.3325 9.144C60.4805 8.16 59.4245 7.668 58.1645 7.668C57.3845 7.668 56.6885 7.842 56.0765 8.19C55.4645 8.526 54.9845 9 54.6365 9.612C54.3005 10.224 54.1325 10.92 54.1325 11.7C54.1325 12.48 54.3005 13.176 54.6365 13.788C54.9845 14.4 55.4645 14.88 56.0765 15.228C56.6885 15.564 57.3845 15.732 58.1645 15.732C59.4245 15.732 60.4805 15.234 61.3325 14.238L63.2045 15.966C62.6045 16.698 61.8605 17.256 60.9725 17.64C60.0845 18.024 59.0945 18.216 58.0025 18.216ZM65.1737 5.4H68.0897V18H65.1737V5.4ZM77.1819 18.216C75.8739 18.216 74.6919 17.934 73.6359 17.37C72.5919 16.806 71.7699 16.032 71.1699 15.048C70.5819 14.052 70.2879 12.936 70.2879 11.7C70.2879 10.464 70.5819 9.354 71.1699 8.37C71.7699 7.374 72.5919 6.594 73.6359 6.03C74.6919 5.466 75.8739 5.184 77.1819 5.184C78.4899 5.184 79.6659 5.466 80.7099 6.03C81.7539 6.594 82.5759 7.374 83.1759 8.37C83.7759 9.354 84.0759 10.464 84.0759 11.7C84.0759 12.936 83.7759 14.052 83.1759 15.048C82.5759 16.032 81.7539 16.806 80.7099 17.37C79.6659 17.934 78.4899 18.216 77.1819 18.216ZM77.1819 15.732C77.9259 15.732 78.5979 15.564 79.1979 15.228C79.7979 14.88 80.2659 14.4 80.6019 13.788C80.9499 13.176 81.1239 12.48 81.1239 11.7C81.1239 10.92 80.9499 10.224 80.6019 9.612C80.2659 9 79.7979 8.526 79.1979 8.19C78.5979 7.842 77.9259 7.668 77.1819 7.668C76.4379 7.668 75.7659 7.842 75.1659 8.19C74.5659 8.526 74.0919 9 73.7439 9.612C73.4079 10.224 73.2399 10.92 73.2399 11.7C73.2399 12.48 73.4079 13.176 73.7439 13.788C74.0919 14.4 74.5659 14.88 75.1659 15.228C75.7659 15.564 76.4379 15.732 77.1819 15.732ZM97.8234 5.4V18H95.4294L89.1474 10.35V18H86.2674V5.4H88.6794L94.9434 13.05V5.4H97.8234ZM109.103 15.3H103.253L102.137 18H99.1485L104.765 5.4H107.645L113.279 18H110.219L109.103 15.3ZM108.185 13.086L106.187 8.262L104.189 13.086H108.185ZM122.924 11.502H125.588V16.614C124.904 17.13 124.112 17.526 123.212 17.802C122.312 18.078 121.406 18.216 120.494 18.216C119.186 18.216 118.01 17.94 116.966 17.388C115.922 16.824 115.1 16.05 114.5 15.066C113.912 14.07 113.618 12.948 113.618 11.7C113.618 10.452 113.912 9.336 114.5 8.352C115.1 7.356 115.928 6.582 116.984 6.03C118.04 5.466 119.228 5.184 120.548 5.184C121.652 5.184 122.654 5.37 123.554 5.742C124.454 6.114 125.21 6.654 125.822 7.362L123.95 9.09C123.05 8.142 121.964 7.668 120.692 7.668C119.888 7.668 119.174 7.836 118.55 8.172C117.926 8.508 117.44 8.982 117.092 9.594C116.744 10.206 116.57 10.908 116.57 11.7C116.57 12.48 116.744 13.176 117.092 13.788C117.44 14.4 117.92 14.88 118.532 15.228C119.156 15.564 119.864 15.732 120.656 15.732C121.496 15.732 122.252 15.552 122.924 15.192V11.502ZM136.325 18L133.895 14.49H133.751H131.213V18H128.297V5.4H133.751C134.867 5.4 135.833 5.586 136.649 5.958C137.477 6.33 138.113 6.858 138.557 7.542C139.001 8.226 139.223 9.036 139.223 9.972C139.223 10.908 138.995 11.718 138.539 12.402C138.095 13.074 137.459 13.59 136.631 13.95L139.457 18H136.325ZM136.271 9.972C136.271 9.264 136.043 8.724 135.587 8.352C135.131 7.968 134.465 7.776 133.589 7.776H131.213V12.168H133.589C134.465 12.168 135.131 11.976 135.587 11.592C136.043 11.208 136.271 10.668 136.271 9.972ZM141.533 5.4H144.449V18H141.533V5.4ZM153.469 18.216C152.185 18.216 151.021 17.94 149.977 17.388C148.945 16.824 148.129 16.05 147.529 15.066C146.941 14.07 146.647 12.948 146.647 11.7C146.647 10.452 146.941 9.336 147.529 8.352C148.129 7.356 148.945 6.582 149.977 6.03C151.021 5.466 152.191 5.184 153.487 5.184C154.579 5.184 155.563 5.376 156.439 5.76C157.327 6.144 158.071 6.696 158.671 7.416L156.799 9.144C155.947 8.16 154.891 7.668 153.631 7.668C152.851 7.668 152.155 7.842 151.543 8.19C150.931 8.526 150.451 9 150.103 9.612C149.767 10.224 149.599 10.92 149.599 11.7C149.599 12.48 149.767 13.176 150.103 13.788C150.451 14.4 150.931 14.88 151.543 15.228C152.155 15.564 152.851 15.732 153.631 15.732C154.891 15.732 155.947 15.234 156.799 14.238L158.671 15.966C158.071 16.698 157.327 17.256 156.439 17.64C155.551 18.024 154.561 18.216 153.469 18.216ZM166.479 18.216C165.171 18.216 163.989 17.934 162.933 17.37C161.889 16.806 161.067 16.032 160.467 15.048C159.879 14.052 159.585 12.936 159.585 11.7C159.585 10.464 159.879 9.354 160.467 8.37C161.067 7.374 161.889 6.594 162.933 6.03C163.989 5.466 165.171 5.184 166.479 5.184C167.787 5.184 168.963 5.466 170.007 6.03C171.051 6.594 171.873 7.374 172.473 8.37C173.073 9.354 173.373 10.464 173.373 11.7C173.373 12.936 173.073 14.052 172.473 15.048C171.873 16.032 171.051 16.806 170.007 17.37C168.963 17.934 167.787 18.216 166.479 18.216ZM166.479 15.732C167.223 15.732 167.895 15.564 168.495 15.228C169.095 14.88 169.563 14.4 169.899 13.788C170.247 13.176 170.421 12.48 170.421 11.7C170.421 10.92 170.247 10.224 169.899 9.612C169.563 9 169.095 8.526 168.495 8.19C167.895 7.842 167.223 7.668 166.479 7.668C165.735 7.668 165.063 7.842 164.463 8.19C163.863 8.526 163.389 9 163.041 9.612C162.705 10.224 162.537 10.92 162.537 11.7C162.537 12.48 162.705 13.176 163.041 13.788C163.389 14.4 163.863 14.88 164.463 15.228C165.063 15.564 165.735 15.732 166.479 15.732ZM179.704 18.216C178.708 18.216 177.742 18.084 176.806 17.82C175.882 17.544 175.138 17.19 174.574 16.758L175.564 14.562C176.104 14.958 176.746 15.276 177.49 15.516C178.234 15.756 178.978 15.876 179.722 15.876C180.55 15.876 181.162 15.756 181.558 15.516C181.954 15.264 182.152 14.934 182.152 14.526C182.152 14.226 182.032 13.98 181.792 13.788C181.564 13.584 181.264 13.422 180.892 13.302C180.532 13.182 180.04 13.05 179.416 12.906C178.456 12.678 177.67 12.45 177.058 12.222C176.446 11.994 175.918 11.628 175.474 11.124C175.042 10.62 174.826 9.948 174.826 9.108C174.826 8.376 175.024 7.716 175.42 7.128C175.816 6.528 176.41 6.054 177.202 5.706C178.006 5.358 178.984 5.184 180.136 5.184C180.94 5.184 181.726 5.28 182.494 5.472C183.262 5.664 183.934 5.94 184.51 6.3L183.61 8.514C182.446 7.854 181.282 7.524 180.118 7.524C179.302 7.524 178.696 7.656 178.3 7.92C177.916 8.184 177.724 8.532 177.724 8.964C177.724 9.396 177.946 9.72 178.39 9.936C178.846 10.14 179.536 10.344 180.46 10.548C181.42 10.776 182.206 11.004 182.818 11.232C183.43 11.46 183.952 11.82 184.384 12.312C184.828 12.804 185.05 13.47 185.05 14.31C185.05 15.03 184.846 15.69 184.438 16.29C184.042 16.878 183.442 17.346 182.638 17.694C181.834 18.042 180.856 18.216 179.704 18.216Z" fill="#EDE2FF"/>
<g filter="url(#filter0_d)">
<path d="M8.95349 1L5 4.46602V18.534L8.95349 22H12.6L16.5535 18.534L12.6 15.068M21.0465 22L25 18.534V4.46602L21.0465 1H17.4L13.4465 4.46602L17.4 7.93204" stroke="#EDE2FF" stroke-width="2"/>
</g>
<defs>
<filter id="filter0_d" x="0" y="0" width="30" height="31" filterUnits="userSpaceOnUse" color-interpolation-filters="sRGB">
<feFlood flood-opacity="0" result="BackgroundImageFix"/>
<feColorMatrix in="SourceAlpha" type="matrix" values="0 0 0 0 0 0 0 0 0 0 0 0 0 0 0 0 0 0 127 0"/>
<feOffset dy="4"/>
<feGaussianBlur stdDeviation="2"/>
<feColorMatrix type="matrix" values="0 0 0 0 0 0 0 0 0 0 0 0 0 0 0 0 0 0 0.25 0"/>
<feBlend mode="normal" in2="BackgroundImageFix" result="effect1_dropShadow"/>
<feBlend mode="normal" in="SourceGraphic" in2="effect1_dropShadow" result="shape"/>
</filter>
</defs>
</svg>
