<svg width="188" height="35" viewBox="0 0 188 35" fill="none" xmlns="http://www.w3.org/2000/svg">
<path d="M6.94186 2L2 7.11651V27.8835L6.94186 33H11.5L16.4419 27.8835L11.5 22.767M22.0581 33L27 27.8835V7.1165L22.0581 2H17.5L12.5581 7.1165L17.5 12.233" stroke="#05AC72" stroke-width="4"/>
<path d="M45.634 23.216C44.638 23.216 43.672 23.084 42.736 22.82C41.812 22.544 41.068 22.19 40.504 21.758L41.494 19.562C42.034 19.958 42.676 20.276 43.42 20.516C44.164 20.756 44.908 20.876 45.652 20.876C46.48 20.876 47.092 20.756 47.488 20.516C47.884 20.264 48.082 19.934 48.082 19.526C48.082 19.226 47.962 18.98 47.722 18.788C47.494 18.584 47.194 18.422 46.822 18.302C46.462 18.182 45.97 18.05 45.346 17.906C44.386 17.678 43.6 17.45 42.988 17.222C42.376 16.994 41.848 16.628 41.404 16.124C40.972 15.62 40.756 14.948 40.756 14.108C40.756 13.376 40.954 12.716 41.35 12.128C41.746 11.528 42.34 11.054 43.132 10.706C43.936 10.358 44.914 10.184 46.066 10.184C46.87 10.184 47.656 10.28 48.424 10.472C49.192 10.664 49.864 10.94 50.44 11.3L49.54 13.514C48.376 12.854 47.212 12.524 46.048 12.524C45.232 12.524 44.626 12.656 44.23 12.92C43.846 13.184 43.654 13.532 43.654 13.964C43.654 14.396 43.876 14.72 44.32 14.936C44.776 15.14 45.466 15.344 46.39 15.548C47.35 15.776 48.136 16.004 48.748 16.232C49.36 16.46 49.882 16.82 50.314 17.312C50.758 17.804 50.98 18.47 50.98 19.31C50.98 20.03 50.776 20.69 50.368 21.29C49.972 21.878 49.372 22.346 48.568 22.694C47.764 23.042 46.786 23.216 45.634 23.216ZM59.0025 23.216C57.7185 23.216 56.5545 22.94 55.5105 22.388C54.4785 21.824 53.6625 21.05 53.0625 20.066C52.4745 19.07 52.1805 17.948 52.1805 16.7C52.1805 15.452 52.4745 14.336 53.0625 13.352C53.6625 12.356 54.4785 11.582 55.5105 11.03C56.5545 10.466 57.7245 10.184 59.0205 10.184C60.1125 10.184 61.0965 10.376 61.9725 10.76C62.8605 11.144 63.6045 11.696 64.2045 12.416L62.3325 14.144C61.4805 13.16 60.4245 12.668 59.1645 12.668C58.3845 12.668 57.6885 12.842 57.0765 13.19C56.4645 13.526 55.9845 14 55.6365 14.612C55.3005 15.224 55.1325 15.92 55.1325 16.7C55.1325 17.48 55.3005 18.176 55.6365 18.788C55.9845 19.4 56.4645 19.88 57.0765 20.228C57.6885 20.564 58.3845 20.732 59.1645 20.732C60.4245 20.732 61.4805 20.234 62.3325 19.238L64.2045 20.966C63.6045 21.698 62.8605 22.256 61.9725 22.64C61.0845 23.024 60.0945 23.216 59.0025 23.216ZM66.1737 10.4H69.0897V23H66.1737V10.4ZM78.1819 23.216C76.8739 23.216 75.6919 22.934 74.6359 22.37C73.5919 21.806 72.7699 21.032 72.1699 20.048C71.5819 19.052 71.2879 17.936 71.2879 16.7C71.2879 15.464 71.5819 14.354 72.1699 13.37C72.7699 12.374 73.5919 11.594 74.6359 11.03C75.6919 10.466 76.8739 10.184 78.1819 10.184C79.4899 10.184 80.6659 10.466 81.7099 11.03C82.7539 11.594 83.5759 12.374 84.1759 13.37C84.7759 14.354 85.0759 15.464 85.0759 16.7C85.0759 17.936 84.7759 19.052 84.1759 20.048C83.5759 21.032 82.7539 21.806 81.7099 22.37C80.6659 22.934 79.4899 23.216 78.1819 23.216ZM78.1819 20.732C78.9259 20.732 79.5979 20.564 80.1979 20.228C80.7979 19.88 81.2659 19.4 81.6019 18.788C81.9499 18.176 82.1239 17.48 82.1239 16.7C82.1239 15.92 81.9499 15.224 81.6019 14.612C81.2659 14 80.7979 13.526 80.1979 13.19C79.5979 12.842 78.9259 12.668 78.1819 12.668C77.4379 12.668 76.7659 12.842 76.1659 13.19C75.5659 13.526 75.0919 14 74.7439 14.612C74.4079 15.224 74.2399 15.92 74.2399 16.7C74.2399 17.48 74.4079 18.176 74.7439 18.788C75.0919 19.4 75.5659 19.88 76.1659 20.228C76.7659 20.564 77.4379 20.732 78.1819 20.732ZM98.8234 10.4V23H96.4294L90.1474 15.35V23H87.2674V10.4H89.6794L95.9434 18.05V10.4H98.8234ZM110.103 20.3H104.253L103.137 23H100.149L105.765 10.4H108.645L114.279 23H111.219L110.103 20.3ZM109.185 18.086L107.187 13.262L105.189 18.086H109.185ZM123.924 16.502H126.588V21.614C125.904 22.13 125.112 22.526 124.212 22.802C123.312 23.078 122.406 23.216 121.494 23.216C120.186 23.216 119.01 22.94 117.966 22.388C116.922 21.824 116.1 21.05 115.5 20.066C114.912 19.07 114.618 17.948 114.618 16.7C114.618 15.452 114.912 14.336 115.5 13.352C116.1 12.356 116.928 11.582 117.984 11.03C119.04 10.466 120.228 10.184 121.548 10.184C122.652 10.184 123.654 10.37 124.554 10.742C125.454 11.114 126.21 11.654 126.822 12.362L124.95 14.09C124.05 13.142 122.964 12.668 121.692 12.668C120.888 12.668 120.174 12.836 119.55 13.172C118.926 13.508 118.44 13.982 118.092 14.594C117.744 15.206 117.57 15.908 117.57 16.7C117.57 17.48 117.744 18.176 118.092 18.788C118.44 19.4 118.92 19.88 119.532 20.228C120.156 20.564 120.864 20.732 121.656 20.732C122.496 20.732 123.252 20.552 123.924 20.192V16.502ZM137.325 23L134.895 19.49H134.751H132.213V23H129.297V10.4H134.751C135.867 10.4 136.833 10.586 137.649 10.958C138.477 11.33 139.113 11.858 139.557 12.542C140.001 13.226 140.223 14.036 140.223 14.972C140.223 15.908 139.995 16.718 139.539 17.402C139.095 18.074 138.459 18.59 137.631 18.95L140.457 23H137.325ZM137.271 14.972C137.271 14.264 137.043 13.724 136.587 13.352C136.131 12.968 135.465 12.776 134.589 12.776H132.213V17.168H134.589C135.465 17.168 136.131 16.976 136.587 16.592C137.043 16.208 137.271 15.668 137.271 14.972ZM142.533 10.4H145.449V23H142.533V10.4ZM154.469 23.216C153.185 23.216 152.021 22.94 150.977 22.388C149.945 21.824 149.129 21.05 148.529 20.066C147.941 19.07 147.647 17.948 147.647 16.7C147.647 15.452 147.941 14.336 148.529 13.352C149.129 12.356 149.945 11.582 150.977 11.03C152.021 10.466 153.191 10.184 154.487 10.184C155.579 10.184 156.563 10.376 157.439 10.76C158.327 11.144 159.071 11.696 159.671 12.416L157.799 14.144C156.947 13.16 155.891 12.668 154.631 12.668C153.851 12.668 153.155 12.842 152.543 13.19C151.931 13.526 151.451 14 151.103 14.612C150.767 15.224 150.599 15.92 150.599 16.7C150.599 17.48 150.767 18.176 151.103 18.788C151.451 19.4 151.931 19.88 152.543 20.228C153.155 20.564 153.851 20.732 154.631 20.732C155.891 20.732 156.947 20.234 157.799 19.238L159.671 20.966C159.071 21.698 158.327 22.256 157.439 22.64C156.551 23.024 155.561 23.216 154.469 23.216ZM167.479 23.216C166.171 23.216 164.989 22.934 163.933 22.37C162.889 21.806 162.067 21.032 161.467 20.048C160.879 19.052 160.585 17.936 160.585 16.7C160.585 15.464 160.879 14.354 161.467 13.37C162.067 12.374 162.889 11.594 163.933 11.03C164.989 10.466 166.171 10.184 167.479 10.184C168.787 10.184 169.963 10.466 171.007 11.03C172.051 11.594 172.873 12.374 173.473 13.37C174.073 14.354 174.373 15.464 174.373 16.7C174.373 17.936 174.073 19.052 173.473 20.048C172.873 21.032 172.051 21.806 171.007 22.37C169.963 22.934 168.787 23.216 167.479 23.216ZM167.479 20.732C168.223 20.732 168.895 20.564 169.495 20.228C170.095 19.88 170.563 19.4 170.899 18.788C171.247 18.176 171.421 17.48 171.421 16.7C171.421 15.92 171.247 15.224 170.899 14.612C170.563 14 170.095 13.526 169.495 13.19C168.895 12.842 168.223 12.668 167.479 12.668C166.735 12.668 166.063 12.842 165.463 13.19C164.863 13.526 164.389 14 164.041 14.612C163.705 15.224 163.537 15.92 163.537 16.7C163.537 17.48 163.705 18.176 164.041 18.788C164.389 19.4 164.863 19.88 165.463 20.228C166.063 20.564 166.735 20.732 167.479 20.732ZM180.704 23.216C179.708 23.216 178.742 23.084 177.806 22.82C176.882 22.544 176.138 22.19 175.574 21.758L176.564 19.562C177.104 19.958 177.746 20.276 178.49 20.516C179.234 20.756 179.978 20.876 180.722 20.876C181.55 20.876 182.162 20.756 182.558 20.516C182.954 20.264 183.152 19.934 183.152 19.526C183.152 19.226 183.032 18.98 182.792 18.788C182.564 18.584 182.264 18.422 181.892 18.302C181.532 18.182 181.04 18.05 180.416 17.906C179.456 17.678 178.67 17.45 178.058 17.222C177.446 16.994 176.918 16.628 176.474 16.124C176.042 15.62 175.826 14.948 175.826 14.108C175.826 13.376 176.024 12.716 176.42 12.128C176.816 11.528 177.41 11.054 178.202 10.706C179.006 10.358 179.984 10.184 181.136 10.184C181.94 10.184 182.726 10.28 183.494 10.472C184.262 10.664 184.934 10.94 185.51 11.3L184.61 13.514C183.446 12.854 182.282 12.524 181.118 12.524C180.302 12.524 179.696 12.656 179.3 12.92C178.916 13.184 178.724 13.532 178.724 13.964C178.724 14.396 178.946 14.72 179.39 14.936C179.846 15.14 180.536 15.344 181.46 15.548C182.42 15.776 183.206 16.004 183.818 16.232C184.43 16.46 184.952 16.82 185.384 17.312C185.828 17.804 186.05 18.47 186.05 19.31C186.05 20.03 185.846 20.69 185.438 21.29C185.042 21.878 184.442 22.346 183.638 22.694C182.834 23.042 181.856 23.216 180.704 23.216Z" fill="#05AC72"/>
</svg>
